<svg width="290" height="40" viewBox="0 0 290 40" fill="none" xmlns="http://www.w3.org/2000/svg">
<rect x="155.5" y="0.499939" width="134" height="39" rx="4.5" fill="black"/>
<rect x="155.5" y="0.499939" width="134" height="39" rx="4.5" stroke="#A6A6A6"/>
<path d="M223.136 21.7511C220.784 21.7511 218.867 23.5401 218.867 26.0041C218.867 28.4531 220.784 30.2571 223.136 30.2571C225.489 30.2571 227.406 28.4531 227.406 26.0041C227.405 23.5401 225.488 21.7511 223.136 21.7511ZM223.136 28.5831C221.847 28.5831 220.736 27.5201 220.736 26.0051C220.736 24.4741 221.848 23.4271 223.136 23.4271C224.425 23.4271 225.536 24.4741 225.536 26.0051C225.536 27.5191 224.425 28.5831 223.136 28.5831ZM213.822 21.7511C211.47 21.7511 209.553 23.5401 209.553 26.0041C209.553 28.4531 211.47 30.2571 213.822 30.2571C216.175 30.2571 218.092 28.4531 218.092 26.0041C218.092 23.5401 216.175 21.7511 213.822 21.7511ZM213.822 28.5831C212.533 28.5831 211.422 27.5201 211.422 26.0051C211.422 24.4741 212.534 23.4271 213.822 23.4271C215.111 23.4271 216.222 24.4741 216.222 26.0051C216.223 27.5191 215.111 28.5831 213.822 28.5831ZM202.744 23.0571V24.8611H207.062C206.933 25.8761 206.595 26.6171 206.079 27.1321C205.451 27.7601 204.468 28.4531 202.744 28.4531C200.086 28.4531 198.008 26.3101 198.008 23.6521C198.008 20.9941 200.086 18.8511 202.744 18.8511C204.178 18.8511 205.225 19.4151 205.998 20.1401L207.271 18.8671C206.191 17.8361 204.758 17.0471 202.744 17.0471C199.103 17.0471 196.042 20.0111 196.042 23.6521C196.042 27.2931 199.103 30.2571 202.744 30.2571C204.709 30.2571 206.192 29.6121 207.351 28.4041C208.543 27.2121 208.914 25.5361 208.914 24.1831C208.914 23.7651 208.882 23.3781 208.817 23.0561H202.744V23.0571ZM248.052 24.4581C247.698 23.5081 246.618 21.7511 244.411 21.7511C242.22 21.7511 240.399 23.4751 240.399 26.0041C240.399 28.3881 242.204 30.2571 244.62 30.2571C246.569 30.2571 247.697 29.0651 248.165 28.3721L246.715 27.4051C246.232 28.1141 245.571 28.5811 244.62 28.5811C243.67 28.5811 242.993 28.1461 242.558 27.2921L248.245 24.9401L248.052 24.4581ZM242.252 25.8761C242.204 24.2321 243.525 23.3951 244.476 23.3951C245.217 23.3951 245.845 23.7661 246.055 24.2971L242.252 25.8761ZM237.629 30.0001H239.497V17.4991H237.629V30.0001ZM234.567 22.7021H234.503C234.084 22.2021 233.278 21.7511 232.264 21.7511C230.137 21.7511 228.188 23.6201 228.188 26.0211C228.188 28.4051 230.137 30.2581 232.264 30.2581C233.279 30.2581 234.084 29.8071 234.503 29.2921H234.567V29.9041C234.567 31.5311 233.697 32.4011 232.296 32.4011C231.152 32.4011 230.443 31.5801 230.153 30.8871L228.526 31.5641C228.993 32.6911 230.233 34.0771 232.296 34.0771C234.487 34.0771 236.34 32.7881 236.34 29.6461V22.0101H234.568V22.7021H234.567ZM232.425 28.5831C231.136 28.5831 230.057 27.5031 230.057 26.0211C230.057 24.5221 231.136 23.4271 232.425 23.4271C233.697 23.4271 234.696 24.5221 234.696 26.0211C234.696 27.5031 233.697 28.5831 232.425 28.5831ZM256.806 17.4991H252.335V30.0001H254.2V25.2641H256.805C258.873 25.2641 260.907 23.7671 260.907 21.3821C260.907 18.9971 258.874 17.4991 256.806 17.4991ZM256.854 23.5241H254.2V19.2391H256.854C258.249 19.2391 259.041 20.3941 259.041 21.3821C259.041 22.3501 258.249 23.5241 256.854 23.5241ZM268.386 21.7291C267.035 21.7291 265.636 22.3241 265.057 23.6431L266.713 24.3341C267.067 23.6431 267.727 23.4171 268.418 23.4171C269.383 23.4171 270.364 23.9961 270.38 25.0251V25.1541C270.042 24.9611 269.318 24.6721 268.434 24.6721C266.649 24.6721 264.831 25.6531 264.831 27.4861C264.831 29.1591 266.295 30.2361 267.935 30.2361C269.189 30.2361 269.881 29.6731 270.315 29.0131H270.379V29.9781H272.181V25.1851C272.182 22.9671 270.524 21.7291 268.386 21.7291ZM268.16 28.5801C267.55 28.5801 266.697 28.2741 266.697 27.5181C266.697 26.5531 267.759 26.1831 268.676 26.1831C269.495 26.1831 269.882 26.3601 270.38 26.6011C270.235 27.7601 269.238 28.5801 268.16 28.5801ZM278.743 22.0021L276.604 27.4221H276.54L274.32 22.0021H272.31L275.639 29.5771L273.741 33.7911H275.687L280.818 22.0021H278.743ZM261.937 30.0001H263.802V17.4991H261.937V30.0001Z" fill="white"/>
<path d="M202.418 10.2429C202.418 11.0809 202.17 11.7479 201.673 12.2459C201.109 12.8379 200.373 13.1339 199.469 13.1339C198.603 13.1339 197.866 12.8339 197.261 12.2339C196.655 11.6329 196.352 10.8889 196.352 10.0009C196.352 9.11188 196.655 8.36788 197.261 7.76788C197.866 7.16688 198.603 6.86688 199.469 6.86688C199.899 6.86688 200.31 6.95088 200.7 7.11788C201.091 7.28588 201.404 7.50888 201.638 7.78788L201.111 8.31588C200.714 7.84088 200.167 7.60388 199.468 7.60388C198.836 7.60388 198.29 7.82588 197.829 8.26988C197.368 8.71388 197.138 9.29088 197.138 9.99988C197.138 10.7089 197.368 11.2859 197.829 11.7299C198.29 12.1739 198.836 12.3959 199.468 12.3959C200.138 12.3959 200.697 12.1729 201.144 11.7259C201.434 11.4349 201.602 11.0299 201.647 10.5109H199.468V9.78988H202.375C202.405 9.94688 202.418 10.0979 202.418 10.2429Z" fill="white"/>
<path d="M207.028 7.73694H204.296V9.63894H206.76V10.3599H204.296V12.2619H207.028V12.9999H203.525V6.99994H207.028V7.73694Z" fill="white"/>
<path d="M210.279 12.9999H209.508V7.73694H207.832V6.99994H211.955V7.73694H210.279V12.9999Z" fill="white"/>
<path d="M214.938 12.9999V6.99994H215.709V12.9999H214.938Z" fill="white"/>
<path d="M219.128 12.9999H218.357V7.73694H216.681V6.99994H220.804V7.73694H219.128V12.9999Z" fill="white"/>
<path d="M228.609 12.2249C228.019 12.8309 227.286 13.1339 226.409 13.1339C225.532 13.1339 224.799 12.8309 224.21 12.2249C223.62 11.6189 223.326 10.8769 223.326 9.99993C223.326 9.12293 223.62 8.38093 224.21 7.77493C224.799 7.16893 225.532 6.86493 226.409 6.86493C227.281 6.86493 228.013 7.16993 228.605 7.77893C229.197 8.38793 229.493 9.12793 229.493 9.99993C229.493 10.8769 229.198 11.6189 228.609 12.2249ZM224.779 11.7219C225.223 12.1719 225.766 12.3959 226.409 12.3959C227.052 12.3959 227.596 12.1709 228.039 11.7219C228.483 11.2719 228.706 10.6979 228.706 9.99993C228.706 9.30193 228.483 8.72793 228.039 8.27793C227.596 7.82793 227.052 7.60393 226.409 7.60393C225.766 7.60393 225.223 7.82893 224.779 8.27793C224.336 8.72793 224.113 9.30193 224.113 9.99993C224.113 10.6979 224.336 11.2719 224.779 11.7219Z" fill="white"/>
<path d="M230.575 12.9999V6.99994H231.513L234.429 11.6669H234.462L234.429 10.5109V6.99994H235.2V12.9999H234.395L231.344 8.10594H231.311L231.344 9.26194V12.9999H230.575Z" fill="white"/>
<path d="M202.418 10.2429C202.418 11.0809 202.17 11.7479 201.673 12.2459C201.109 12.8379 200.373 13.1339 199.469 13.1339C198.603 13.1339 197.866 12.8339 197.261 12.2339C196.655 11.6329 196.352 10.8889 196.352 10.0009C196.352 9.11188 196.655 8.36788 197.261 7.76788C197.866 7.16688 198.603 6.86688 199.469 6.86688C199.899 6.86688 200.31 6.95088 200.7 7.11788C201.091 7.28588 201.404 7.50888 201.638 7.78788L201.111 8.31588C200.714 7.84088 200.167 7.60388 199.468 7.60388C198.836 7.60388 198.29 7.82588 197.829 8.26988C197.368 8.71388 197.138 9.29088 197.138 9.99988C197.138 10.7089 197.368 11.2859 197.829 11.7299C198.29 12.1739 198.836 12.3959 199.468 12.3959C200.138 12.3959 200.697 12.1729 201.144 11.7259C201.434 11.4349 201.602 11.0299 201.647 10.5109H199.468V9.78988H202.375C202.405 9.94688 202.418 10.0979 202.418 10.2429Z" stroke="white" stroke-width="0.2" stroke-miterlimit="10"/>
<path d="M207.028 7.73694H204.296V9.63894H206.76V10.3599H204.296V12.2619H207.028V12.9999H203.525V6.99994H207.028V7.73694Z" stroke="white" stroke-width="0.2" stroke-miterlimit="10"/>
<path d="M210.279 12.9999H209.508V7.73694H207.832V6.99994H211.955V7.73694H210.279V12.9999Z" stroke="white" stroke-width="0.2" stroke-miterlimit="10"/>
<path d="M214.938 12.9999V6.99994H215.709V12.9999H214.938Z" stroke="white" stroke-width="0.2" stroke-miterlimit="10"/>
<path d="M219.128 12.9999H218.357V7.73694H216.681V6.99994H220.804V7.73694H219.128V12.9999Z" stroke="white" stroke-width="0.2" stroke-miterlimit="10"/>
<path d="M228.609 12.2249C228.019 12.8309 227.286 13.1339 226.409 13.1339C225.532 13.1339 224.799 12.8309 224.21 12.2249C223.62 11.6189 223.326 10.8769 223.326 9.99993C223.326 9.12293 223.62 8.38093 224.21 7.77493C224.799 7.16893 225.532 6.86493 226.409 6.86493C227.281 6.86493 228.013 7.16993 228.605 7.77893C229.197 8.38793 229.493 9.12793 229.493 9.99993C229.493 10.8769 229.198 11.6189 228.609 12.2249ZM224.779 11.7219C225.223 12.1719 225.766 12.3959 226.409 12.3959C227.052 12.3959 227.596 12.1709 228.039 11.7219C228.483 11.2719 228.706 10.6979 228.706 9.99993C228.706 9.30193 228.483 8.72793 228.039 8.27793C227.596 7.82793 227.052 7.60393 226.409 7.60393C225.766 7.60393 225.223 7.82893 224.779 8.27793C224.336 8.72793 224.113 9.30193 224.113 9.99993C224.113 10.6979 224.336 11.2719 224.779 11.7219Z" stroke="white" stroke-width="0.2" stroke-miterlimit="10"/>
<path d="M230.575 12.9999V6.99994H231.513L234.429 11.6669H234.462L234.429 10.5109V6.99994H235.2V12.9999H234.395L231.344 8.10594H231.311L231.344 9.26194V12.9999H230.575Z" stroke="white" stroke-width="0.2" stroke-miterlimit="10"/>
<g filter="url(#filter0_ii_0_544)">
<path d="M165.436 7.53794C165.145 7.84594 164.973 8.32394 164.973 8.94294V31.0589C164.973 31.6789 165.145 32.1559 165.436 32.4639L165.51 32.5359L177.899 20.1469V20.0009V19.8549L165.51 7.46494L165.436 7.53794Z" fill="url(#paint0_linear_0_544)"/>
<path d="M182.028 24.2779L177.899 20.1469V20.0009V19.8549L182.029 15.7249L182.122 15.7779L187.015 18.5579C188.412 19.3519 188.412 20.6509 187.015 21.4459L182.122 24.2259L182.028 24.2779Z" fill="url(#paint1_linear_0_544)"/>
<g filter="url(#filter1_i_0_544)">
<path d="M182.122 24.2249L177.898 20.0009L165.436 32.4639C165.896 32.9519 166.657 33.0119 167.514 32.5259L182.122 24.2249Z" fill="url(#paint2_linear_0_544)"/>
</g>
<path d="M182.122 15.7769L167.514 7.47694C166.657 6.98994 165.896 7.05094 165.436 7.53894L177.899 20.0019L182.122 15.7769Z" fill="url(#paint3_linear_0_544)"/>
</g>
<rect x="0.5" y="0.499939" width="119" height="39" rx="6.5" fill="#0C0D10"/>
<rect x="0.5" y="0.499939" width="119" height="39" rx="6.5" stroke="#A6A6A6"/>
<path d="M81.5259 19.2009V21.4919H80.0898V22.9943H81.5259V28.0993C81.5259 29.8425 82.3144 30.5397 84.2983 30.5397C84.647 30.5397 84.979 30.4982 85.2695 30.4484V28.9626C85.0205 28.9875 84.8628 29.0041 84.5889 29.0041C83.7007 29.0041 83.3105 28.5891 83.3105 27.6428V22.9943H85.2695V21.4919H83.3105V19.2009H81.5259Z" fill="white"/>
<path d="M90.3234 30.6642C92.963 30.6642 94.5817 28.8962 94.5817 25.966C94.5817 23.0524 92.9547 21.2761 90.3234 21.2761C87.6837 21.2761 86.0568 23.0524 86.0568 25.966C86.0568 28.8962 87.6754 30.6642 90.3234 30.6642ZM90.3234 29.0788C88.7711 29.0788 87.8995 27.9416 87.8995 25.966C87.8995 24.007 88.7711 22.8615 90.3234 22.8615C91.8673 22.8615 92.7472 24.007 92.7472 25.966C92.7472 27.9333 91.8673 29.0788 90.3234 29.0788Z" fill="white"/>
<path d="M95.9666 30.4899H97.7512V25.1525C97.7512 23.8825 98.7058 23.0275 100.059 23.0275C100.374 23.0275 100.906 23.0856 101.055 23.1354V21.3757C100.864 21.3259 100.524 21.301 100.258 21.301C99.0794 21.301 98.075 21.9484 97.8176 22.8366H97.6848V21.4504H95.9666V30.4899Z" fill="white"/>
<path d="M105.486 22.7951C106.806 22.7951 107.669 23.7165 107.711 25.1359H103.145C103.245 23.7248 104.166 22.7951 105.486 22.7951ZM107.703 28.0495C107.371 28.7551 106.632 29.1452 105.553 29.1452C104.125 29.1452 103.204 28.1408 103.145 26.5554V26.4558H109.529V25.8332C109.529 22.9943 108.01 21.2761 105.495 21.2761C102.946 21.2761 101.328 23.1105 101.328 25.9992C101.328 28.8879 102.913 30.6642 105.503 30.6642C107.57 30.6642 109.014 29.6682 109.421 28.0495H107.703Z" fill="white"/>
<path d="M69.8223 27.1518C69.9599 29.3715 71.8097 30.7911 74.5628 30.7911C77.5052 30.7911 79.3464 29.3026 79.3464 26.9281C79.3464 25.0611 78.2967 24.0287 75.7501 23.435L74.3821 23.0995C72.7647 22.721 72.1108 22.2133 72.1108 21.3272C72.1108 20.2087 73.126 19.4774 74.6489 19.4774C76.0942 19.4774 77.0923 20.1915 77.2729 21.3358H79.1485C79.0366 19.2451 77.1955 17.7739 74.6747 17.7739C71.9646 17.7739 70.1578 19.2451 70.1578 21.4562C70.1578 23.2802 71.1816 24.3642 73.4272 24.889L75.0274 25.2762C76.6707 25.6634 77.3934 26.2312 77.3934 27.1776C77.3934 28.2788 76.2577 29.079 74.7091 29.079C73.0486 29.079 71.8957 28.3304 71.7323 27.1518H69.8223Z" fill="white"/>
<path d="M51.3349 21.301C50.1064 21.301 49.0439 21.9152 48.4961 22.9445H48.3633V21.4504H46.645V33.4948H48.4297V29.1203H48.5708C49.0439 30.0749 50.0649 30.6393 51.3516 30.6393C53.6343 30.6393 55.0869 28.8381 55.0869 25.966C55.0869 23.0939 53.6343 21.301 51.3349 21.301ZM50.8286 29.0373C49.3345 29.0373 48.3965 27.8586 48.3965 25.9743C48.3965 24.0817 49.3345 22.903 50.8369 22.903C52.3476 22.903 53.2524 24.0568 53.2524 25.966C53.2524 27.8835 52.3476 29.0373 50.8286 29.0373Z" fill="white"/>
<path d="M61.3317 21.301C60.1032 21.301 59.0407 21.9152 58.4929 22.9445H58.3601V21.4504H56.6418V33.4948H58.4265V29.1203H58.5676C59.0407 30.0749 60.0617 30.6393 61.3483 30.6393C63.6311 30.6393 65.0837 28.8381 65.0837 25.966C65.0837 23.0939 63.6311 21.301 61.3317 21.301ZM60.8254 29.0373C59.3313 29.0373 58.3933 27.8586 58.3933 25.9743C58.3933 24.0817 59.3313 22.903 60.8337 22.903C62.3444 22.903 63.2492 24.0568 63.2492 25.966C63.2492 27.8835 62.3444 29.0373 60.8254 29.0373Z" fill="white"/>
<path d="M43.443 30.4899H45.4906L41.0082 18.0751H38.9348L34.4523 30.4899H36.4311L37.5754 27.1948H42.3073L43.443 30.4899ZM39.8725 20.3292H40.0188L41.8169 25.5773H38.0658L39.8725 20.3292Z" fill="white"/>
<path d="M35.6511 8.71088V14.6999H37.8135C39.5981 14.6999 40.6316 13.6 40.6316 11.6867C40.6316 9.80243 39.5898 8.71088 37.8135 8.71088H35.6511ZM36.5808 9.55756H37.7097C38.9507 9.55756 39.6853 10.3461 39.6853 11.6992C39.6853 13.0729 38.9631 13.8532 37.7097 13.8532H36.5808V9.55756Z" fill="white"/>
<path d="M43.7967 14.787C45.1165 14.787 45.9258 13.903 45.9258 12.4379C45.9258 10.9811 45.1124 10.093 43.7967 10.093C42.4769 10.093 41.6634 10.9811 41.6634 12.4379C41.6634 13.903 42.4727 14.787 43.7967 14.787ZM43.7967 13.9943C43.0206 13.9943 42.5848 13.4257 42.5848 12.4379C42.5848 11.4584 43.0206 10.8857 43.7967 10.8857C44.5687 10.8857 45.0086 11.4584 45.0086 12.4379C45.0086 13.4216 44.5687 13.9943 43.7967 13.9943Z" fill="white"/>
<path d="M52.818 10.1801H51.9256L51.1205 13.6291H51.0499L50.1202 10.1801H49.2652L48.3355 13.6291H48.2691L47.4598 10.1801H46.555L47.8001 14.6999H48.7174L49.6471 11.3713H49.7176L50.6515 14.6999H51.577L52.818 10.1801Z" fill="white"/>
<path d="M53.8456 14.6999H54.7379V12.0561C54.7379 11.3505 55.1571 10.9106 55.817 10.9106C56.477 10.9106 56.7924 11.2717 56.7924 11.998V14.6999H57.6847V11.7739C57.6847 10.6989 57.1286 10.093 56.12 10.093C55.4394 10.093 54.9911 10.3959 54.7711 10.8981H54.7047V10.1801H53.8456V14.6999Z" fill="white"/>
<path d="M59.09 14.6999H59.9824V8.4162H59.09V14.6999Z" fill="white"/>
<path d="M63.3384 14.787C64.6582 14.787 65.4675 13.903 65.4675 12.4379C65.4675 10.9811 64.6541 10.093 63.3384 10.093C62.0186 10.093 61.2051 10.9811 61.2051 12.4379C61.2051 13.903 62.0144 14.787 63.3384 14.787ZM63.3384 13.9943C62.5623 13.9943 62.1265 13.4257 62.1265 12.4379C62.1265 11.4584 62.5623 10.8857 63.3384 10.8857C64.1104 10.8857 64.5503 11.4584 64.5503 12.4379C64.5503 13.4216 64.1104 13.9943 63.3384 13.9943Z" fill="white"/>
<path d="M68.1263 14.0234C67.6407 14.0234 67.2879 13.7868 67.2879 13.3801C67.2879 12.9816 67.5701 12.77 68.1927 12.7285L69.2967 12.6579V13.0356C69.2967 13.5959 68.7986 14.0234 68.1263 14.0234ZM67.898 14.7746C68.4915 14.7746 68.9854 14.5173 69.2552 14.0649H69.3257V14.6999H70.1849V11.612C70.1849 10.6574 69.5457 10.093 68.4126 10.093C67.3875 10.093 66.657 10.591 66.5657 11.3671H67.429C67.5286 11.0475 67.8731 10.8649 68.3711 10.8649C68.9812 10.8649 69.2967 11.1347 69.2967 11.612V12.0021L68.0723 12.0727C66.9974 12.1391 66.3914 12.6081 66.3914 13.4216C66.3914 14.2475 67.0264 14.7746 67.898 14.7746Z" fill="white"/>
<path d="M73.213 14.7746C73.8355 14.7746 74.3626 14.4799 74.6324 13.986H74.703V14.6999H75.558V8.4162H74.6656V10.8981H74.5992C74.3543 10.4001 73.8314 10.1054 73.213 10.1054C72.0716 10.1054 71.337 11.0102 71.337 12.4379C71.337 13.8698 72.0633 14.7746 73.213 14.7746ZM73.4662 10.9064C74.2132 10.9064 74.6822 11.4999 74.6822 12.4421C74.6822 13.3884 74.2174 13.9736 73.4662 13.9736C72.7108 13.9736 72.2584 13.3967 72.2584 12.4379C72.2584 11.4875 72.7149 10.9064 73.4662 10.9064Z" fill="white"/>
<path d="M81.3444 14.787C82.6643 14.787 83.4736 13.903 83.4736 12.4379C83.4736 10.9811 82.6601 10.093 81.3444 10.093C80.0246 10.093 79.2111 10.9811 79.2111 12.4379C79.2111 13.903 80.0205 14.787 81.3444 14.787ZM81.3444 13.9943C80.5683 13.9943 80.1325 13.4257 80.1325 12.4379C80.1325 11.4584 80.5683 10.8857 81.3444 10.8857C82.1164 10.8857 82.5563 11.4584 82.5563 12.4379C82.5563 13.4216 82.1164 13.9943 81.3444 13.9943Z" fill="white"/>
<path d="M84.6548 14.6999H85.5471V12.0561C85.5471 11.3505 85.9663 10.9106 86.6262 10.9106C87.2861 10.9106 87.6016 11.2717 87.6016 11.998V14.6999H88.4939V11.7739C88.4939 10.6989 87.9377 10.093 86.9292 10.093C86.2485 10.093 85.8003 10.3959 85.5803 10.8981H85.5139V10.1801H84.6548V14.6999Z" fill="white"/>
<path d="M92.6036 9.05536V10.2009H91.8856V10.9521H92.6036V13.5046C92.6036 14.3762 92.9979 14.7248 93.9898 14.7248C94.1642 14.7248 94.3302 14.704 94.4754 14.6791V13.9362C94.3509 13.9487 94.2721 13.957 94.1351 13.957C93.691 13.957 93.4959 13.7495 93.4959 13.2763V10.9521H94.4754V10.2009H93.4959V9.05536H92.6036Z" fill="white"/>
<path d="M95.6732 14.6999H96.5656V12.0602C96.5656 11.3754 96.9723 10.9147 97.7028 10.9147C98.3336 10.9147 98.6698 11.28 98.6698 12.0021V14.6999H99.5622V11.7822C99.5622 10.7072 98.9687 10.0971 98.0058 10.0971C97.3251 10.0971 96.8478 10.4001 96.6278 10.9064H96.5573V8.4162H95.6732V14.6999Z" fill="white"/>
<path d="M102.781 10.8525C103.441 10.8525 103.873 11.3132 103.894 12.0229H101.611C101.661 11.3173 102.121 10.8525 102.781 10.8525ZM103.889 13.4797C103.723 13.8325 103.354 14.0275 102.814 14.0275C102.101 14.0275 101.64 13.5253 101.611 12.7326V12.6828H104.802V12.3715C104.802 10.9521 104.043 10.093 102.785 10.093C101.511 10.093 100.702 11.0102 100.702 12.4545C100.702 13.8989 101.495 14.787 102.789 14.787C103.823 14.787 104.545 14.289 104.748 13.4797H103.889Z" fill="white"/>
<path d="M24.769 20.3008C24.7907 18.6198 25.6934 17.0292 27.1256 16.1487C26.2221 14.8584 24.7088 14.0403 23.1344 13.991C21.4552 13.8148 19.8272 14.9958 18.9715 14.9958C18.0992 14.9958 16.7817 14.0085 15.363 14.0377C13.5137 14.0975 11.7898 15.1488 10.8901 16.7656C8.95607 20.114 10.3987 25.035 12.2513 27.7417C13.1782 29.067 14.2615 30.5475 15.6789 30.495C17.066 30.4374 17.584 29.6105 19.2583 29.6105C20.9171 29.6105 21.4031 30.495 22.8493 30.4616C24.3377 30.4374 25.2754 29.1303 26.1698 27.7924C26.8358 26.8481 27.3483 25.8044 27.6882 24.6999C25.9391 23.9601 24.771 22.1999 24.769 20.3008Z" fill="white"/>
<path d="M22.0373 12.211C22.8489 11.2368 23.2487 9.98463 23.1518 8.7204C21.912 8.85062 20.7668 9.44318 19.9443 10.38C19.14 11.2953 18.7214 12.5255 18.8006 13.7414C20.0408 13.7542 21.2601 13.1777 22.0373 12.211Z" fill="white"/>
<defs>
<filter id="filter0_ii_0_544" x="164.973" y="7.14086" width="23.0897" height="25.7208" filterUnits="userSpaceOnUse" color-interpolation-filters="sRGB">
<feFlood flood-opacity="0" result="BackgroundImageFix"/>
<feBlend mode="normal" in="SourceGraphic" in2="BackgroundImageFix" result="shape"/>
<feColorMatrix in="SourceAlpha" type="matrix" values="0 0 0 0 0 0 0 0 0 0 0 0 0 0 0 0 0 0 127 0" result="hardAlpha"/>
<feOffset dy="-0.15"/>
<feComposite in2="hardAlpha" operator="arithmetic" k2="-1" k3="1"/>
<feColorMatrix type="matrix" values="0 0 0 0 0 0 0 0 0 0 0 0 0 0 0 0 0 0 0.12 0"/>
<feBlend mode="normal" in2="shape" result="effect1_innerShadow_0_544"/>
<feColorMatrix in="SourceAlpha" type="matrix" values="0 0 0 0 0 0 0 0 0 0 0 0 0 0 0 0 0 0 127 0" result="hardAlpha"/>
<feOffset dy="0.15"/>
<feComposite in2="hardAlpha" operator="arithmetic" k2="-1" k3="1"/>
<feColorMatrix type="matrix" values="0 0 0 0 1 0 0 0 0 1 0 0 0 0 1 0 0 0 0.25 0"/>
<feBlend mode="normal" in2="effect1_innerShadow_0_544" result="effect2_innerShadow_0_544"/>
</filter>
<filter id="filter1_i_0_544" x="165.436" y="20.0009" width="16.686" height="12.8607" filterUnits="userSpaceOnUse" color-interpolation-filters="sRGB">
<feFlood flood-opacity="0" result="BackgroundImageFix"/>
<feBlend mode="normal" in="SourceGraphic" in2="BackgroundImageFix" result="shape"/>
<feColorMatrix in="SourceAlpha" type="matrix" values="0 0 0 0 0 0 0 0 0 0 0 0 0 0 0 0 0 0 127 0" result="hardAlpha"/>
<feOffset dy="-0.15"/>
<feComposite in2="hardAlpha" operator="arithmetic" k2="-1" k3="1"/>
<feColorMatrix type="matrix" values="0 0 0 0 0 0 0 0 0 0 0 0 0 0 0 0 0 0 0.08 0"/>
<feBlend mode="normal" in2="shape" result="effect1_innerShadow_0_544"/>
</filter>
<linearGradient id="paint0_linear_0_544" x1="176.801" y1="8.70894" x2="160.019" y2="25.4909" gradientUnits="userSpaceOnUse">
<stop stop-color="#00A0FF"/>
<stop offset="0.0066" stop-color="#00A1FF"/>
<stop offset="0.2601" stop-color="#00BEFF"/>
<stop offset="0.5122" stop-color="#00D2FF"/>
<stop offset="0.7604" stop-color="#00DFFF"/>
<stop offset="1" stop-color="#00E3FF"/>
</linearGradient>
<linearGradient id="paint1_linear_0_544" x1="188.833" y1="20.0009" x2="164.638" y2="20.0009" gradientUnits="userSpaceOnUse">
<stop stop-color="#FFE000"/>
<stop offset="0.4087" stop-color="#FFBD00"/>
<stop offset="0.7754" stop-color="#FFA500"/>
<stop offset="1" stop-color="#FF9C00"/>
</linearGradient>
<linearGradient id="paint2_linear_0_544" x1="179.828" y1="22.2948" x2="157.07" y2="45.0533" gradientUnits="userSpaceOnUse">
<stop stop-color="#FF3A44"/>
<stop offset="1" stop-color="#C31162"/>
</linearGradient>
<linearGradient id="paint3_linear_0_544" x1="162.297" y1="0.176737" x2="172.46" y2="10.339" gradientUnits="userSpaceOnUse">
<stop stop-color="#32A071"/>
<stop offset="0.0685" stop-color="#2DA771"/>
<stop offset="0.4762" stop-color="#15CF74"/>
<stop offset="0.8009" stop-color="#06E775"/>
<stop offset="1" stop-color="#00F076"/>
</linearGradient>
</defs>
</svg>
